<svg width="161" height="61" viewBox="0 0 161 61" fill="none" xmlns="http://www.w3.org/2000/svg">
<line y1="3.5" x2="18" y2="3.5" stroke="#00B031" stroke-width="7"/>
<line x1="3.5" y1="1" x2="3.5" y2="19" stroke="#00B031" stroke-width="7"/>
<line x1="160" y1="54.5" x2="142" y2="54.5" stroke="#00B031" stroke-width="7"/>
<line x1="157.5" y1="39" x2="157.5" y2="57" stroke="#00B031" stroke-width="7"/>
<path d="M39.64 32.992C39.416 33.856 39.048 34.752 38.536 35.68C38.056 36.608 37.448 37.488 36.712 38.32C35.624 39.568 34.424 40.4 33.112 40.816C31.8 41.232 30.616 41.44 29.56 41.44C26.392 41.44 24.04 40.224 22.504 37.792C21 35.36 20.248 31.856 20.248 27.28C20.248 24.88 20.456 22.64 20.872 20.56C21.32 18.48 21.912 16.672 22.648 15.136C23.384 13.568 24.248 12.336 25.24 11.44C26.264 10.544 27.352 10.096 28.504 10.096H29.512C30.088 10.096 30.568 10.176 30.952 10.336C31.368 10.496 31.752 10.704 32.104 10.96C32.488 11.184 32.872 11.44 33.256 11.728C33.64 11.984 34.12 12.24 34.696 12.496C35.656 12.912 36.296 13.68 36.616 14.8C36.936 15.888 37.096 17.056 37.096 18.304C37.096 18.752 37.08 19.216 37.048 19.696C37.048 20.176 36.968 20.624 36.808 21.04C36.648 21.424 36.392 21.76 36.04 22.048C35.688 22.336 35.176 22.512 34.504 22.576C33.576 22.576 32.936 22.256 32.584 21.616C32.232 20.976 32.056 20.288 32.056 19.552C32.056 19.136 32.088 18.64 32.152 18.064C32.216 17.456 32.248 16.848 32.248 16.24C32.248 15.44 32.12 14.736 31.864 14.128C31.64 13.52 31.16 13.216 30.424 13.216C29.24 13.216 28.264 13.648 27.496 14.512C26.76 15.344 26.168 16.416 25.72 17.728C25.304 19.04 25 20.496 24.808 22.096C24.648 23.696 24.568 25.248 24.568 26.752C24.568 28.288 24.6 29.712 24.664 31.024C24.76 32.304 24.968 33.456 25.288 34.48C25.608 35.504 26.072 36.4 26.68 37.168C27.288 37.904 28.136 38.512 29.224 38.992C29.672 39.184 30.168 39.28 30.712 39.28C31.512 39.28 32.264 39.104 32.968 38.752C33.704 38.368 34.344 37.872 34.888 37.264C35.432 36.656 35.864 35.968 36.184 35.2C36.504 34.4 36.664 33.584 36.664 32.752C36.664 31.92 36.808 31.184 37.096 30.544C37.416 29.904 37.928 29.584 38.632 29.584C39.144 29.584 39.48 29.744 39.64 30.064C39.8 30.384 39.88 30.752 39.88 31.168C39.88 31.904 39.8 32.512 39.64 32.992ZM59.7726 34.768C59.7086 35.216 59.5486 35.744 59.2926 36.352C59.0366 36.96 58.7006 37.552 58.2846 38.128C57.9006 38.672 57.4366 39.136 56.8926 39.52C56.3806 39.904 55.8046 40.096 55.1646 40.096C54.2046 40.096 53.3566 39.728 52.6206 38.992C51.9166 38.256 51.4846 37.216 51.3246 35.872C51.1326 36.384 50.9086 36.976 50.6526 37.648C50.3966 38.32 50.0766 38.944 49.6926 39.52C49.3086 40.096 48.8606 40.576 48.3486 40.96C47.8686 41.376 47.2926 41.584 46.6206 41.584C46.4286 41.584 46.2846 41.568 46.1886 41.536C46.0926 41.504 45.9806 41.456 45.8526 41.392C45.7566 41.36 45.6286 41.328 45.4686 41.296C45.3406 41.264 45.1486 41.248 44.8926 41.248C44.1246 41.248 43.4686 40.992 42.9246 40.48C42.4126 40 41.9966 39.376 41.6766 38.608C41.3566 37.84 41.1166 37.008 40.9566 36.112C40.8286 35.184 40.7646 34.32 40.7646 33.52C40.7646 31.6 40.8606 29.776 41.0526 28.048C41.2766 26.32 41.6286 24.8 42.1086 23.488C42.5886 22.144 43.2126 21.088 43.9806 20.32C44.7486 19.52 45.6766 19.12 46.7646 19.12C47.4046 19.12 47.8846 19.184 48.2046 19.312C48.5566 19.408 48.8766 19.536 49.1646 19.696C49.4526 19.824 49.7566 19.968 50.0766 20.128C50.4286 20.288 50.9086 20.416 51.5166 20.512C52.1886 20.896 52.6526 21.36 52.9086 21.904C53.1966 22.416 53.3726 22.976 53.4366 23.584C53.5326 24.192 53.5646 24.832 53.5326 25.504C53.5006 26.144 53.5326 26.784 53.6286 27.424C53.6286 27.456 53.6926 27.504 53.8206 27.568C53.9806 27.632 54.1566 27.712 54.3486 27.808C54.5406 27.872 54.7006 27.984 54.8286 28.144C54.9886 28.272 55.0686 28.448 55.0686 28.672V28.864C54.7486 29.696 54.5566 30.432 54.4926 31.072C54.4286 31.712 54.3966 32.48 54.3966 33.376C54.3966 33.824 54.4126 34.32 54.4446 34.864C54.5086 35.376 54.5886 35.872 54.6846 36.352C54.8126 36.8 54.9886 37.184 55.2126 37.504C55.4366 37.792 55.7246 37.936 56.0766 37.936C56.4606 37.936 56.7966 37.744 57.0846 37.36C57.4046 36.976 57.6606 36.544 57.8526 36.064C58.0766 35.552 58.2526 35.04 58.3806 34.528C58.5406 34.016 58.6366 33.632 58.6686 33.376C58.7326 32.992 58.8926 32.8 59.1486 32.8C59.3086 32.8 59.4526 32.896 59.5806 33.088C59.7406 33.248 59.8206 33.552 59.8206 34C59.8206 34.128 59.8206 34.256 59.8206 34.384C59.8206 34.48 59.8046 34.608 59.7726 34.768ZM50.8926 26.992C50.8926 26.64 50.8606 26.224 50.7966 25.744C50.7326 25.264 50.6206 24.816 50.4606 24.4C50.3006 23.984 50.0606 23.632 49.7406 23.344C49.4206 23.056 48.9886 22.912 48.4446 22.912C47.5486 22.912 46.8126 23.328 46.2366 24.16C45.6926 24.96 45.2606 25.92 44.9406 27.04C44.6206 28.128 44.4126 29.264 44.3166 30.448C44.2206 31.6 44.1726 32.512 44.1726 33.184C44.1726 33.696 44.1886 34.32 44.2206 35.056C44.2846 35.76 44.3806 36.432 44.5086 37.072C44.6366 37.712 44.8126 38.256 45.0366 38.704C45.2926 39.152 45.6126 39.376 45.9966 39.376C46.9246 39.376 47.6286 39.024 48.1086 38.32C48.6206 37.584 49.0046 36.688 49.2606 35.632C49.5166 34.544 49.6926 33.392 49.7886 32.176C49.9166 30.928 50.0286 29.792 50.1246 28.768C50.1886 28.224 50.3326 27.888 50.5566 27.76C50.7806 27.6 50.8926 27.488 50.8926 27.424V26.992ZM58.6634 31.312C58.6954 29.68 58.7434 28.016 58.8074 26.32C58.8714 24.624 58.9354 23.056 58.9994 21.616C58.9994 21.36 58.7434 21.184 58.2314 21.088C57.7194 20.992 57.1434 20.896 56.5034 20.8C55.8634 20.704 55.2874 20.56 54.7754 20.368C54.2634 20.144 54.0074 19.792 54.0074 19.312C54.0074 18.896 54.4234 18.656 55.2554 18.592C56.0874 18.528 57.3194 18.496 58.9514 18.496C59.0794 18.496 59.1594 18.304 59.1914 17.92C59.2554 17.536 59.2874 17.056 59.2874 16.48C59.3194 15.872 59.3354 15.232 59.3354 14.56C59.3674 13.888 59.3994 13.264 59.4314 12.688C59.4634 12.08 59.5114 11.584 59.5754 11.2C59.6714 10.816 59.7834 10.624 59.9114 10.624C60.0714 10.624 60.3594 10.656 60.7754 10.72C61.1914 10.784 61.6234 10.88 62.0714 11.008C62.5194 11.104 62.9034 11.232 63.2234 11.392C63.5754 11.552 63.7514 11.728 63.7514 11.92L63.2234 18.16C63.2234 18.352 63.3834 18.496 63.7034 18.592C64.0554 18.656 64.4874 18.704 64.9994 18.736C65.5434 18.736 66.1034 18.736 66.6794 18.736C67.2874 18.736 67.8474 18.784 68.3594 18.88C68.9034 18.976 69.3354 19.136 69.6554 19.36C70.0074 19.552 70.1834 19.856 70.1834 20.272C70.1834 20.336 70.1514 20.448 70.0874 20.608C70.0234 20.736 69.9434 20.8 69.8474 20.8C69.7834 20.8 69.6874 20.752 69.5594 20.656C69.4634 20.56 69.1754 20.512 68.6954 20.512C68.5674 20.512 68.2154 20.528 67.6394 20.56C67.0634 20.592 66.4554 20.64 65.8154 20.704C65.1754 20.768 64.5834 20.848 64.0394 20.944C63.5274 21.008 63.2394 21.104 63.1754 21.232C63.1434 21.296 63.0954 21.68 63.0314 22.384C62.9994 23.056 62.9514 23.952 62.8874 25.072C62.8554 26.192 62.8234 27.488 62.7914 28.96C62.7594 30.4 62.7434 31.92 62.7434 33.52C62.7434 34.128 62.7754 34.72 62.8394 35.296C62.9034 35.872 62.9994 36.4 63.1274 36.88C63.2554 37.328 63.4154 37.696 63.6074 37.984C63.8314 38.272 64.0874 38.416 64.3754 38.416C64.7914 38.416 65.1754 38.24 65.5274 37.888C65.8794 37.536 66.1994 37.056 66.4874 36.448C66.7754 35.84 67.0314 35.152 67.2554 34.384C67.4794 33.616 67.6714 32.832 67.8314 32.032C67.9274 31.552 68.0394 31.216 68.1674 31.024C68.2954 30.8 68.4874 30.688 68.7434 30.688C68.9674 30.688 69.1594 30.768 69.3194 30.928C69.5114 31.056 69.6074 31.376 69.6074 31.888C69.6074 32.208 69.5914 32.416 69.5594 32.512C69.4634 33.088 69.2714 33.888 68.9834 34.912C68.7274 35.904 68.3594 36.896 67.8794 37.888C67.4314 38.848 66.8714 39.696 66.1994 40.432C65.5274 41.168 64.7434 41.536 63.8474 41.536C62.9834 41.536 62.2314 41.28 61.5914 40.768C60.9514 40.288 60.4074 39.616 59.9594 38.752C59.5434 37.856 59.2234 36.816 58.9994 35.632C58.7754 34.416 58.6634 33.12 58.6634 31.744V31.312ZM87.0036 34.768C86.9396 35.216 86.7796 35.744 86.5236 36.352C86.2676 36.96 85.9316 37.552 85.5156 38.128C85.1316 38.672 84.6676 39.136 84.1236 39.52C83.6116 39.904 83.0356 40.096 82.3956 40.096C81.4356 40.096 80.5876 39.728 79.8516 38.992C79.1476 38.256 78.7156 37.216 78.5556 35.872C78.3636 36.384 78.1396 36.976 77.8836 37.648C77.6276 38.32 77.3076 38.944 76.9236 39.52C76.5396 40.096 76.0916 40.576 75.5796 40.96C75.0996 41.376 74.5236 41.584 73.8516 41.584C73.6596 41.584 73.5156 41.568 73.4196 41.536C73.3236 41.504 73.2116 41.456 73.0836 41.392C72.9876 41.36 72.8596 41.328 72.6996 41.296C72.5716 41.264 72.3796 41.248 72.1236 41.248C71.3556 41.248 70.6996 40.992 70.1556 40.48C69.6436 40 69.2276 39.376 68.9076 38.608C68.5876 37.84 68.3476 37.008 68.1876 36.112C68.0596 35.184 67.9956 34.32 67.9956 33.52C67.9956 31.6 68.0916 29.776 68.2836 28.048C68.5076 26.32 68.8596 24.8 69.3396 23.488C69.8196 22.144 70.4436 21.088 71.2116 20.32C71.9796 19.52 72.9076 19.12 73.9956 19.12C74.6356 19.12 75.1156 19.184 75.4356 19.312C75.7876 19.408 76.1076 19.536 76.3956 19.696C76.6836 19.824 76.9876 19.968 77.3076 20.128C77.6596 20.288 78.1396 20.416 78.7476 20.512C79.4196 20.896 79.8836 21.36 80.1396 21.904C80.4276 22.416 80.6036 22.976 80.6676 23.584C80.7636 24.192 80.7956 24.832 80.7636 25.504C80.7316 26.144 80.7636 26.784 80.8596 27.424C80.8596 27.456 80.9236 27.504 81.0516 27.568C81.2116 27.632 81.3876 27.712 81.5796 27.808C81.7716 27.872 81.9316 27.984 82.0596 28.144C82.2196 28.272 82.2996 28.448 82.2996 28.672V28.864C81.9796 29.696 81.7876 30.432 81.7236 31.072C81.6596 31.712 81.6276 32.48 81.6276 33.376C81.6276 33.824 81.6436 34.32 81.6756 34.864C81.7396 35.376 81.8196 35.872 81.9156 36.352C82.0436 36.8 82.2196 37.184 82.4436 37.504C82.6676 37.792 82.9556 37.936 83.3076 37.936C83.6916 37.936 84.0276 37.744 84.3156 37.36C84.6356 36.976 84.8916 36.544 85.0836 36.064C85.3076 35.552 85.4836 35.04 85.6116 34.528C85.7716 34.016 85.8676 33.632 85.8996 33.376C85.9636 32.992 86.1236 32.8 86.3796 32.8C86.5396 32.8 86.6836 32.896 86.8116 33.088C86.9716 33.248 87.0516 33.552 87.0516 34C87.0516 34.128 87.0516 34.256 87.0516 34.384C87.0516 34.48 87.0356 34.608 87.0036 34.768ZM78.1236 26.992C78.1236 26.64 78.0916 26.224 78.0276 25.744C77.9636 25.264 77.8516 24.816 77.6916 24.4C77.5316 23.984 77.2916 23.632 76.9716 23.344C76.6516 23.056 76.2196 22.912 75.6756 22.912C74.7796 22.912 74.0436 23.328 73.4676 24.16C72.9236 24.96 72.4916 25.92 72.1716 27.04C71.8516 28.128 71.6436 29.264 71.5476 30.448C71.4516 31.6 71.4036 32.512 71.4036 33.184C71.4036 33.696 71.4196 34.32 71.4516 35.056C71.5156 35.76 71.6116 36.432 71.7396 37.072C71.8676 37.712 72.0436 38.256 72.2676 38.704C72.5236 39.152 72.8436 39.376 73.2276 39.376C74.1556 39.376 74.8596 39.024 75.3396 38.32C75.8516 37.584 76.2356 36.688 76.4916 35.632C76.7476 34.544 76.9236 33.392 77.0196 32.176C77.1476 30.928 77.2596 29.792 77.3556 28.768C77.4196 28.224 77.5636 27.888 77.7876 27.76C78.0116 27.6 78.1236 27.488 78.1236 27.424V26.992ZM73.3716 17.152C73.2116 17.408 72.9716 17.712 72.6516 18.064C72.3316 18.416 72.0756 18.592 71.8836 18.592C71.7876 18.592 71.7076 18.56 71.6436 18.496C71.5156 18.272 71.4036 18.128 71.3076 18.064C71.2436 17.968 71.1796 17.904 71.1156 17.872C71.0836 17.808 71.0516 17.76 71.0196 17.728C71.0196 17.696 71.0196 17.616 71.0196 17.488V16.912C71.0196 16.656 71.0516 16.464 71.1156 16.336C71.1796 16.176 71.3556 15.968 71.6436 15.712C72.3156 15.072 73.0356 14.432 73.8036 13.792C74.5716 13.152 75.2916 12.576 75.9636 12.064C76.6676 11.52 77.2916 11.088 77.8356 10.768C78.4116 10.416 78.8436 10.24 79.1316 10.24C79.3556 10.24 79.5156 10.336 79.6116 10.528C79.7076 10.72 79.7556 11.264 79.7556 12.16C79.7556 12.672 79.6916 13.04 79.5636 13.264C79.4676 13.456 79.3076 13.6 79.0836 13.696C78.8916 13.792 78.6516 13.872 78.3636 13.936C78.0756 14 77.7396 14.144 77.3556 14.368L73.3716 17.152ZM95.2754 38.608C95.2754 38.992 95.1314 39.328 94.8434 39.616C94.5874 39.904 94.2514 40.16 93.8354 40.384C93.4514 40.608 93.0354 40.768 92.5874 40.864C92.1714 40.992 91.8194 41.056 91.5314 41.056C90.9874 41.056 90.3794 40.992 89.7074 40.864C89.0674 40.768 88.5234 40.544 88.0754 40.192C87.5634 39.776 87.1314 39.12 86.7794 38.224C86.4594 37.296 86.2034 36.208 86.0114 34.96C85.8514 33.68 85.7394 32.272 85.6754 30.736C85.6114 29.168 85.5794 27.536 85.5794 25.84C85.5794 25.136 85.5954 24.352 85.6274 23.488C85.6914 22.624 85.7554 21.728 85.8194 20.8C85.8834 19.84 85.9634 18.896 86.0594 17.968C86.1554 17.008 86.2514 16.096 86.3474 15.232C86.4434 14.624 86.5554 13.968 86.6834 13.264C86.8114 12.56 86.9394 11.888 87.0674 11.248C87.2274 10.608 87.4034 10.032 87.5954 9.52C87.7874 9.008 87.9954 8.64 88.2194 8.416C88.4754 8.16 88.8114 8 89.2274 7.936C89.6754 7.84 90.0754 7.792 90.4274 7.792C91.1634 7.792 91.7554 7.984 92.2034 8.368C92.6514 8.752 92.9874 9.28 93.2114 9.952C93.4674 10.592 93.6274 11.344 93.6914 12.208C93.7874 13.04 93.8354 13.936 93.8354 14.896C93.8354 16.368 93.7874 17.968 93.6914 19.696C93.5954 21.392 93.3874 23.104 93.0674 24.832C92.7794 26.56 92.3474 28.24 91.7714 29.872C91.2274 31.504 90.4914 32.992 89.5634 34.336C89.5954 34.784 89.6434 35.312 89.7074 35.92C89.8034 36.496 89.9314 37.04 90.0914 37.552C90.2514 38.064 90.4594 38.496 90.7154 38.848C90.9714 39.2 91.3074 39.376 91.7234 39.376C92.1074 39.376 92.4114 39.296 92.6354 39.136C92.8594 38.944 93.0514 38.736 93.2114 38.512C93.4034 38.288 93.5794 38.096 93.7394 37.936C93.9314 37.744 94.1714 37.648 94.4594 37.648C94.7794 37.648 94.9874 37.744 95.0834 37.936C95.2114 38.128 95.2754 38.352 95.2754 38.608ZM91.6754 16.048C91.6754 15.728 91.6594 15.344 91.6274 14.896C91.6274 14.448 91.5794 14.016 91.4834 13.6C91.4194 13.152 91.3234 12.784 91.1954 12.496C91.0674 12.176 90.8914 12.016 90.6674 12.016C90.3474 12.016 90.0914 12.464 89.8994 13.36C89.7074 14.256 89.5474 15.44 89.4194 16.912C89.3234 18.352 89.2434 20 89.1794 21.856C89.1474 23.68 89.1314 25.536 89.1314 27.424C89.1314 27.968 89.1314 28.544 89.1314 29.152C89.1314 29.728 89.1634 30.24 89.2274 30.688C90.2834 28.16 90.9554 25.712 91.2434 23.344C91.5314 20.976 91.6754 18.544 91.6754 16.048ZM111.125 26.272C111.253 26.048 111.477 25.936 111.797 25.936C111.957 25.936 112.069 26.032 112.133 26.224C112.197 26.416 112.229 26.576 112.229 26.704C112.197 27.696 111.973 28.592 111.557 29.392C111.173 30.16 110.757 30.832 110.309 31.408C110.053 31.76 109.765 32.08 109.445 32.368C109.157 32.656 108.853 32.928 108.533 33.184C108.501 33.728 108.469 34.112 108.437 34.336C108.437 34.528 108.421 34.688 108.389 34.816C108.325 35.296 108.165 35.904 107.909 36.64C107.653 37.376 107.285 38.096 106.805 38.8C106.357 39.504 105.797 40.096 105.125 40.576C104.485 41.088 103.733 41.344 102.869 41.344C102.581 41.344 102.245 41.312 101.861 41.248C101.509 41.184 101.141 41.088 100.757 40.96C100.373 40.864 100.005 40.736 99.6528 40.576C99.3008 40.448 98.9968 40.304 98.7408 40.144C97.9408 39.696 97.2848 39.168 96.7728 38.56C96.2608 37.952 95.8608 37.312 95.5728 36.64C95.3168 35.936 95.1408 35.232 95.0448 34.528C94.9488 33.792 94.9008 33.088 94.9008 32.416C94.9008 31.264 95.0128 30.096 95.2368 28.912C95.4928 27.728 95.7968 26.592 96.1488 25.504C96.5008 24.416 96.9008 23.44 97.3488 22.576C97.7968 21.712 98.2288 21.04 98.6448 20.56C99.0608 20.112 99.5248 19.808 100.037 19.648C100.549 19.456 101.013 19.36 101.429 19.36C101.941 19.36 102.453 19.488 102.965 19.744C103.477 20 103.973 20.32 104.453 20.704C104.933 21.088 105.397 21.536 105.845 22.048C106.325 22.528 106.773 23.008 107.189 23.488C107.509 23.84 107.749 24.416 107.909 25.216C108.069 25.984 108.197 26.768 108.293 27.568C108.357 28.016 108.405 28.496 108.437 29.008C108.469 29.52 108.485 30.048 108.485 30.592C108.965 30.208 109.349 29.808 109.637 29.392C109.925 28.944 110.149 28.528 110.309 28.144C110.501 27.76 110.645 27.408 110.741 27.088C110.869 26.736 110.997 26.464 111.125 26.272ZM105.701 30.4C105.701 30.272 105.685 29.984 105.653 29.536C105.653 29.088 105.621 28.56 105.557 27.952C105.525 27.344 105.445 26.72 105.317 26.08C105.221 25.408 105.061 24.8 104.837 24.256C104.645 23.712 104.389 23.264 104.069 22.912C103.749 22.528 103.349 22.336 102.869 22.336C102.389 22.336 101.925 22.528 101.477 22.912C101.029 23.296 100.629 23.792 100.277 24.4C99.9248 25.008 99.6368 25.696 99.4128 26.464C99.2208 27.232 99.1248 27.984 99.1248 28.72C99.1248 30 99.3808 30.944 99.8928 31.552C100.405 32.128 101.285 32.416 102.533 32.416C103.461 32.416 104.213 32.272 104.789 31.984C105.397 31.696 105.701 31.472 105.701 31.312V30.4ZM105.461 34.336C105.077 34.592 104.549 34.784 103.877 34.912C103.205 35.04 102.645 35.104 102.197 35.104C101.333 35.104 100.661 35.04 100.181 34.912C99.7328 34.784 99.2368 34.528 98.6928 34.144L98.6448 35.152C98.6448 35.504 98.6928 35.872 98.7888 36.256C98.8848 36.64 99.0288 36.992 99.2208 37.312C99.4448 37.632 99.7488 37.904 100.133 38.128C100.517 38.32 100.997 38.416 101.573 38.416C102.277 38.416 102.869 38.288 103.349 38.032C103.861 37.744 104.261 37.392 104.549 36.976C104.869 36.56 105.093 36.112 105.221 35.632C105.381 35.152 105.461 34.72 105.461 34.336ZM126.876 41.248C126.876 41.568 126.732 41.792 126.444 41.92C126.156 42.048 125.884 42.112 125.628 42.112L124.668 42.016C124.508 42.016 124.428 42.112 124.428 42.304L124.38 42.88C124.412 43.744 124.428 44.832 124.428 46.144C124.428 47.456 124.428 48.72 124.428 49.936C124.428 51.216 124.38 52.464 124.284 53.68C124.22 54.928 124.044 56.032 123.756 56.992C123.468 57.984 123.052 58.768 122.508 59.344C121.996 59.952 121.276 60.256 120.348 60.256C119.548 60.256 118.7 60.208 117.804 60.112C116.94 60.048 116.14 59.856 115.404 59.536C114.7 59.216 114.108 58.736 113.628 58.096C113.18 57.488 112.956 56.656 112.956 55.6C112.956 54.544 113.068 53.456 113.292 52.336C113.548 51.248 113.9 50.176 114.348 49.12C114.796 48.096 115.324 47.104 115.932 46.144C116.572 45.216 117.26 44.384 117.996 43.648C118.38 43.264 118.796 42.864 119.244 42.448C119.724 42.064 120.14 41.744 120.492 41.488V41.44C120.556 40.768 120.604 40.096 120.636 39.424C120.668 38.752 120.684 38.064 120.684 37.36C120.524 37.648 120.332 38.048 120.108 38.56C119.884 39.04 119.612 39.504 119.292 39.952C119.004 40.4 118.668 40.784 118.284 41.104C117.9 41.456 117.468 41.632 116.988 41.632C116.732 41.632 116.508 41.584 116.316 41.488C116.124 41.392 115.852 41.344 115.5 41.344C114.604 41.28 113.852 41.04 113.244 40.624C112.668 40.208 112.204 39.632 111.852 38.896C111.532 38.16 111.308 37.296 111.18 36.304C111.052 35.28 110.988 34.144 110.988 32.896C110.988 31.392 111.068 29.84 111.228 28.24C111.42 26.64 111.74 25.184 112.188 23.872C112.636 22.528 113.228 21.44 113.964 20.608C114.732 19.744 115.692 19.312 116.844 19.312C116.972 19.312 117.132 19.36 117.324 19.456C117.548 19.552 117.772 19.664 117.996 19.792C118.252 19.888 118.492 20 118.716 20.128C118.972 20.224 119.164 20.288 119.292 20.32C119.932 20.448 120.524 20.608 121.068 20.8C121.612 20.992 122.076 21.248 122.46 21.568C122.844 21.856 123.148 22.256 123.372 22.768C123.596 23.248 123.708 23.856 123.708 24.592C123.708 25.104 123.66 25.568 123.564 25.984C123.5 26.4 123.468 26.928 123.468 27.568C123.468 27.824 123.564 28 123.756 28.096C123.948 28.192 124.156 28.272 124.38 28.336C124.636 28.4 124.86 28.48 125.052 28.576C125.244 28.64 125.34 28.8 125.34 29.056C125.34 29.12 125.26 29.28 125.1 29.536C124.972 29.76 124.892 29.904 124.86 29.968C124.764 30.224 124.684 30.64 124.62 31.216C124.556 31.76 124.508 32.368 124.476 33.04C124.444 33.68 124.412 34.352 124.38 35.056C124.38 35.728 124.38 36.336 124.38 36.88C124.38 37.296 124.38 37.856 124.38 38.56C124.38 39.232 124.396 39.792 124.428 40.24H124.62C124.684 40.24 124.748 40.224 124.812 40.192C124.876 40.192 124.924 40.192 124.956 40.192C125.244 40.192 125.628 40.272 126.108 40.432C126.62 40.624 126.876 40.896 126.876 41.248ZM120.732 26.416C120.732 26.064 120.7 25.664 120.636 25.216C120.572 24.768 120.46 24.352 120.3 23.968C120.14 23.552 119.9 23.216 119.58 22.96C119.292 22.672 118.924 22.528 118.476 22.528C117.868 22.528 117.292 22.768 116.748 23.248C116.236 23.728 115.772 24.416 115.356 25.312C114.972 26.176 114.652 27.248 114.396 28.528C114.172 29.776 114.06 31.2 114.06 32.8C114.06 33.472 114.076 34.176 114.108 34.912C114.172 35.616 114.252 36.256 114.348 36.832C114.476 37.408 114.652 37.888 114.876 38.272C115.132 38.656 115.452 38.848 115.836 38.848C116.508 38.848 117.1 38.56 117.612 37.984C118.124 37.408 118.54 36.704 118.86 35.872C119.212 35.008 119.468 34.128 119.628 33.232C119.82 32.304 119.932 31.504 119.964 30.832C119.996 29.904 120.044 29.28 120.108 28.96C120.172 28.608 120.236 28.384 120.3 28.288C120.492 28.032 120.604 27.728 120.636 27.376C120.7 27.024 120.732 26.704 120.732 26.416ZM120.54 43.12C119.804 43.632 119.1 44.352 118.428 45.28C117.788 46.208 117.228 47.216 116.748 48.304C116.268 49.392 115.884 50.496 115.596 51.616C115.34 52.736 115.212 53.744 115.212 54.64C115.212 54.96 115.244 55.312 115.308 55.696C115.372 56.08 115.468 56.432 115.596 56.752C115.756 57.104 115.964 57.392 116.22 57.616C116.508 57.84 116.844 57.952 117.228 57.952C117.9 57.952 118.444 57.664 118.86 57.088C119.308 56.544 119.644 55.888 119.868 55.12C120.124 54.352 120.284 53.568 120.348 52.768C120.444 51.968 120.492 51.328 120.492 50.848C120.492 50.752 120.492 50.608 120.492 50.416C120.492 50.224 120.492 49.856 120.492 49.312C120.524 48.768 120.54 48 120.54 47.008C120.54 46.048 120.54 44.752 120.54 43.12ZM143.703 26.272C143.831 26.048 144.055 25.936 144.375 25.936C144.535 25.936 144.647 26.032 144.711 26.224C144.775 26.416 144.807 26.576 144.807 26.704C144.775 27.696 144.551 28.592 144.135 29.392C143.751 30.16 143.335 30.832 142.887 31.408C142.631 31.76 142.343 32.08 142.023 32.368C141.735 32.656 141.431 32.928 141.111 33.184C141.079 33.728 141.047 34.112 141.015 34.336C141.015 34.528 140.999 34.688 140.967 34.816C140.903 35.296 140.743 35.904 140.487 36.64C140.231 37.376 139.863 38.096 139.383 38.8C138.935 39.504 138.375 40.096 137.703 40.576C137.063 41.088 136.311 41.344 135.447 41.344C135.159 41.344 134.823 41.312 134.439 41.248C134.087 41.184 133.719 41.088 133.335 40.96C132.951 40.864 132.583 40.736 132.231 40.576C131.879 40.448 131.575 40.304 131.319 40.144C130.519 39.696 129.863 39.168 129.351 38.56C128.839 37.952 128.439 37.312 128.151 36.64C127.895 35.936 127.719 35.232 127.623 34.528C127.527 33.792 127.479 33.088 127.479 32.416C127.479 31.264 127.591 30.096 127.815 28.912C128.071 27.728 128.375 26.592 128.727 25.504C129.079 24.416 129.479 23.44 129.927 22.576C130.375 21.712 130.807 21.04 131.223 20.56C131.639 20.112 132.103 19.808 132.615 19.648C133.127 19.456 133.591 19.36 134.007 19.36C134.519 19.36 135.031 19.488 135.543 19.744C136.055 20 136.551 20.32 137.031 20.704C137.511 21.088 137.975 21.536 138.423 22.048C138.903 22.528 139.351 23.008 139.767 23.488C140.087 23.84 140.327 24.416 140.487 25.216C140.647 25.984 140.775 26.768 140.871 27.568C140.935 28.016 140.983 28.496 141.015 29.008C141.047 29.52 141.063 30.048 141.063 30.592C141.543 30.208 141.927 29.808 142.215 29.392C142.503 28.944 142.727 28.528 142.887 28.144C143.079 27.76 143.223 27.408 143.319 27.088C143.447 26.736 143.575 26.464 143.703 26.272ZM138.279 30.4C138.279 30.272 138.263 29.984 138.231 29.536C138.231 29.088 138.199 28.56 138.135 27.952C138.103 27.344 138.023 26.72 137.895 26.08C137.799 25.408 137.639 24.8 137.415 24.256C137.223 23.712 136.967 23.264 136.647 22.912C136.327 22.528 135.927 22.336 135.447 22.336C134.967 22.336 134.503 22.528 134.055 22.912C133.607 23.296 133.207 23.792 132.855 24.4C132.503 25.008 132.215 25.696 131.991 26.464C131.799 27.232 131.703 27.984 131.703 28.72C131.703 30 131.959 30.944 132.471 31.552C132.983 32.128 133.863 32.416 135.111 32.416C136.039 32.416 136.791 32.272 137.367 31.984C137.975 31.696 138.279 31.472 138.279 31.312V30.4ZM138.039 34.336C137.655 34.592 137.127 34.784 136.455 34.912C135.783 35.04 135.223 35.104 134.775 35.104C133.911 35.104 133.239 35.04 132.759 34.912C132.311 34.784 131.815 34.528 131.271 34.144L131.223 35.152C131.223 35.504 131.271 35.872 131.367 36.256C131.463 36.64 131.607 36.992 131.799 37.312C132.023 37.632 132.327 37.904 132.711 38.128C133.095 38.32 133.575 38.416 134.151 38.416C134.855 38.416 135.447 38.288 135.927 38.032C136.439 37.744 136.839 37.392 137.127 36.976C137.447 36.56 137.671 36.112 137.799 35.632C137.959 35.152 138.039 34.72 138.039 34.336Z" fill="white"/>
</svg>
