<svg width="16" height="22" viewBox="0 0 16 22" fill="none" xmlns="http://www.w3.org/2000/svg">
<path d="M14.2751 6.47108C14.7959 5.93397 14.7959 5.06171 14.2751 4.5246C13.7543 3.98749 12.9084 3.98749 12.3876 4.5246L8.00011 9.0535L3.60845 4.52889C3.08761 3.99178 2.24178 3.99178 1.72095 4.52889C1.20011 5.066 1.20011 5.93827 1.72095 6.47538L6.11261 11L1.72511 15.5289C1.20428 16.066 1.20428 16.9383 1.72511 17.4754C2.24595 18.0125 3.09178 18.0125 3.61261 17.4754L8.00011 12.9465L12.3918 17.4711C12.9126 18.0082 13.7584 18.0082 14.2793 17.4711C14.8001 16.934 14.8001 16.0617 14.2793 15.5246L9.88761 11L14.2751 6.47108Z" fill="#00B031"/>
</svg>
